<svg xmlns="http://www.w3.org/2000/svg" width="26.488" height="26.488" viewBox="0 0 26.488 26.488">
  <g id="charger" transform="translate(0 0)">
    <path id="Path_922" data-name="Path 922" d="M36.34,13.339,28.515,5.513,33.279.749a2.559,2.559,0,0,1,3.619,0L41.1,4.956a2.559,2.559,0,0,1,0,3.619Z" transform="translate(-15.366)" fill="#2d8bfc"/>
    <path id="Path_923" data-name="Path 923" d="M14.955,29.227l-8.02-8.021a.784.784,0,0,1,0-1.109l8.621-8.621a.784.784,0,0,1,1.109,0L24.685,19.5a.784.784,0,0,1,0,1.109l-8.621,8.621A.785.785,0,0,1,14.955,29.227Z" transform="translate(-3.613 -6.061)" fill="#82bbfd"/>
    <rect id="Rectangle_641" data-name="Rectangle 641" width="3.689" height="3.228" transform="translate(6.028 17.852) rotate(45)" fill="#2d8bfc"/>
    <path id="Path_924" data-name="Path 924" d="M42.015,11.251,37.791,7.026a1.163,1.163,0,0,1,0-1.645l.638-.638a1.163,1.163,0,0,1,1.645,0L44.3,8.968a1.163,1.163,0,0,1,0,1.645l-.638.638A1.163,1.163,0,0,1,42.015,11.251Z" transform="translate(-20.181 -2.373)" fill="#fff"/>
    <g id="Group_2121" data-name="Group 2121" transform="translate(18.283 3.044)">
      <path id="Path_925" data-name="Path 925" d="M40.761,6.736a.461.461,0,0,0-.652,0l-.326.326a.461.461,0,1,0,.652.652l.326-.326A.461.461,0,0,0,40.761,6.736Z" transform="translate(-39.648 -6.601)" fill="#fed953"/>
      <path id="Path_926" data-name="Path 926" d="M42.883,8.858a.461.461,0,0,0-.652,0l-.326.326a.461.461,0,1,0,.652.652l.326-.326A.461.461,0,0,0,42.883,8.858Z" transform="translate(-40.791 -7.744)" fill="#fed953"/>
      <path id="Path_927" data-name="Path 927" d="M45,10.979a.461.461,0,0,0-.652,0l-.326.326a.461.461,0,1,0,.652.652L45,11.631A.461.461,0,0,0,45,10.979Z" transform="translate(-41.934 -8.887)" fill="#fed953"/>
      <path id="Path_928" data-name="Path 928" d="M47.125,13.1a.461.461,0,0,0-.652,0l-.326.326a.461.461,0,1,0,.652.652l.326-.326A.461.461,0,0,0,47.125,13.1Z" transform="translate(-43.077 -10.03)" fill="#fed953"/>
      <path id="Path_929" data-name="Path 929" d="M49.246,15.221a.461.461,0,0,0-.652,0l-.326.326a.461.461,0,0,0,.652.652l.326-.326A.461.461,0,0,0,49.246,15.221Z" transform="translate(-44.22 -11.173)" fill="#fed953"/>
    </g>
    <path id="Path_930" data-name="Path 930" d="M4.42,45.028.27,49.178a.922.922,0,0,0,1.3,1.3l4.15-4.15Z" transform="translate(0 -24.265)" fill="#82bbfd"/>
  </g>
</svg>
