<svg xmlns="http://www.w3.org/2000/svg" width="17.194" height="21.456" viewBox="0 0 17.194 21.456">
  <g id="Group_2134" data-name="Group 2134" transform="translate(-17 -11.258)">
    <g id="phone-ringing" transform="translate(17 15.52)">
      <g id="Group_2132" data-name="Group 2132" transform="translate(0 0)">
        <path id="Path_961" data-name="Path 961" d="M15.066,18.128a14.526,14.526,0,0,1-2.015-2.515.965.965,0,0,1,.006-1.061l.821-1.267a.957.957,0,0,0,.1-.881L12.561,8.64a.981.981,0,0,0-1.451-.484L9.139,9.415A2.425,2.425,0,0,0,8.071,12.06,17.447,17.447,0,0,0,12.793,20.4a17.446,17.446,0,0,0,8.342,4.722,2.425,2.425,0,0,0,2.645-1.069l1.259-1.97a.981.981,0,0,0-.484-1.451l-3.763-1.412a.957.957,0,0,0-.881.1l-1.267.821a.965.965,0,0,1-1.061.006,14.526,14.526,0,0,1-2.515-2.015Z" transform="translate(-8 -8)" fill="#82bbfd" fill-rule="evenodd"/>
        <path id="Path_962" data-name="Path 962" d="M22.294,58.654A17.952,17.952,0,0,1,9.23,45.59a2.443,2.443,0,0,1,.176-1.656l-.265.17a2.425,2.425,0,0,0-1.069,2.645A17.951,17.951,0,0,0,21.135,59.812a2.425,2.425,0,0,0,2.645-1.069l.17-.265A2.443,2.443,0,0,1,22.294,58.654Z" transform="translate(-8.001 -42.688)" fill="#2d8bfc" fill-rule="evenodd"/>
      </g>
    </g>
    <g id="Group_2133" data-name="Group 2133" transform="matrix(0.966, 0.259, -0.259, 0.966, 22.624, 10.748)">
      <path id="Path_963" data-name="Path 963" d="M.423,9.24,0,8.814A5.74,5.74,0,0,0,0,.423L.423,0A6.315,6.315,0,0,1,.423,9.24Z" transform="translate(0.137 1.596) rotate(-41)" fill="#ffc143"/>
      <path id="Path_964" data-name="Path 964" d="M.423,6.557,0,6.132A4.013,4.013,0,0,0,1.271,3.279,4.013,4.013,0,0,0,0,.426L.423,0A4.654,4.654,0,0,1,1.87,3.279,4.654,4.654,0,0,1,.423,6.557Z" transform="translate(0 3.489) rotate(-41)" fill="#ffc143"/>
    </g>
  </g>
</svg>
